<svg xmlns="http://www.w3.org/2000/svg" viewBox="0 0 521.97 521.97"><defs><style>.cls-1{fill:#83d1de;}</style></defs><title>Asset 3</title><g id="Layer_2" data-name="Layer 2"><g id="Layer_1-2" data-name="Layer 1"><rect class="cls-1" x="232.16" y="34.63" width="57.69" height="122.16"/><rect class="cls-1" x="232.16" y="91.64" width="16.87" height="400.06"/><rect class="cls-1" x="85.63" y="91.64" width="16.87" height="348"/><rect class="cls-1" x="272.98" y="91.64" width="16.87" height="400.06"/><rect class="cls-1" x="245.65" y="178.29" width="227.37" height="16.86" transform="translate(-26.79 308.76) rotate(-45)"/><rect class="cls-1" x="406.11" y="182.28" width="16.86" height="187.53" transform="translate(-73.77 374.02) rotate(-45)"/><rect class="cls-1" x="26.56" y="252.54" width="205.6" height="16.87"/><rect class="cls-1" x="233.58" y="318.64" width="54.83" height="16.87"/><path class="cls-1" d="M451.1,82.16,410.28,123a202.52,202.52,0,0,1,54,138c0,112.29-91,203.31-203.31,203.31S57.69,373.26,57.69,261A202.4,202.4,0,0,1,102.5,133.69V53.61A260.57,260.57,0,0,0,0,261C0,405.12,116.85,522,261,522S522,405.12,522,261A260,260,0,0,0,451.1,82.16Z"/><path class="cls-1" d="M119.36,115.09c77.25-75,199.34-76.51,278.38-4.49l40.82-40.82c-88.65-82.47-220.69-91.84-319.2-28.11Z"/><path class="cls-1" d="M102.5,53.56A261,261,0,0,0,.07,253H57.79A202.53,202.53,0,0,1,102.5,133.58Z"/><rect class="cls-1" x="232.16" y="144.35" width="46.8" height="331.53"/></g></g></svg>
